<?xml version="1.0" standalone="no"?>
<!DOCTYPE svg PUBLIC "-//W3C//DTD SVG 20010904//EN"
 "http://www.w3.org/TR/2001/REC-SVG-20010904/DTD/svg10.dtd">
<svg version="1.0" xmlns="http://www.w3.org/2000/svg"
 width="1024.000000pt" height="1024.000000pt" viewBox="0 0 1024.000000 1024.000000"
 preserveAspectRatio="xMidYMid meet">

<g transform="translate(0.000000,1024.000000) scale(0.100000,-0.100000)"
fill="#000000" stroke="none">
<path d="M4855 8419 c-170 -14 -471 -78 -665 -141 -405 -131 -851 -418 -1137
-733 -97 -106 -244 -301 -330 -435 -209 -329 -376 -814 -423 -1228 -14 -123
-14 -455 0 -567 49 -405 191 -818 398 -1160 125 -207 362 -493 534 -645 321
-284 676 -487 1054 -604 452 -139 940 -157 1424 -50 288 64 622 201 851 349
334 216 668 544 888 872 84 125 202 339 256 463 83 190 170 523 196 750 19
163 16 540 -6 685 -23 157 -102 473 -150 600 -195 522 -546 982 -1016 1333
-126 95 -231 157 -424 252 -426 211 -934 301 -1450 259z m575 -174 c535 -68
976 -266 1385 -621 337 -292 590 -645 758 -1060 70 -172 144 -452 167 -634 56
-442 -16 -943 -194 -1346 -143 -323 -344 -611 -608 -871 -333 -328 -693 -544
-1106 -662 -280 -80 -407 -96 -742 -95 -317 0 -452 18 -719 95 -290 83 -610
243 -841 419 -359 275 -606 569 -795 948 -140 281 -216 512 -261 792 -58 359
-38 700 61 1075 94 354 246 656 499 990 93 124 325 350 459 449 132 97 326
220 429 272 261 131 664 239 973 260 50 4 92 9 95 12 9 8 321 -8 440 -23z"/>
<path d="M4840 8149 c-168 -15 -482 -83 -620 -134 -468 -176 -895 -499 -1175
-890 -136 -189 -156 -222 -235 -380 -99 -201 -151 -344 -201 -558 -51 -222
-58 -283 -65 -532 -7 -234 5 -362 51 -570 35 -158 116 -399 169 -505 l43 -85
907 -5 907 -5 18 -53 c36 -105 125 -208 225 -259 133 -68 345 -70 474 -4 76
39 218 199 241 272 l12 37 317 7 c174 4 500 5 724 1 223 -4 487 -4 587 0 l181
7 21 36 c15 26 129 348 129 366 0 1 -15 0 -32 -2 -36 -3 -29 2 14 11 32 7 37
22 72 201 31 157 43 264 51 452 l6 142 -63 4 -63 3 64 2 c60 2 63 3 57 25 -3
12 -6 30 -6 39 0 10 -10 18 -27 21 l-28 4 29 2 29 1 -7 68 c-4 38 -10 82 -15
98 -7 28 -10 29 -62 27 -56 -2 -52 1 14 12 37 6 38 7 32 38 -4 18 -11 37 -16
43 -5 6 -6 13 -3 17 3 3 3 24 -1 46 l-7 41 -56 2 -57 2 53 3 c46 4 52 7 52 26
0 33 -11 42 -60 55 l-45 11 43 -4 c51 -6 50 -7 13 105 l-29 85 -101 -2 c-55
-2 -101 1 -101 6 0 5 26 9 57 10 117 2 138 14 113 62 -7 12 -22 19 -43 20 -30
0 -31 1 -9 11 24 12 28 29 11 60 -11 20 -16 20 -177 13 -177 -8 -285 -7 -527
4 -125 5 -81 7 258 12 224 4 410 9 413 12 3 3 -2 19 -11 36 l-16 31 -227 2
-227 1 205 8 c113 4 213 5 223 3 10 -3 17 0 17 8 0 27 -25 67 -45 72 -11 3
-159 7 -330 8 -292 1 -300 2 -140 9 94 3 234 8 313 9 78 1 142 3 142 5 0 16
-46 75 -61 80 -11 4 -57 4 -102 0 -45 -3 -95 -2 -112 4 -24 7 -13 9 58 10 l87
1 0 33 c0 18 6 39 13 46 10 11 3 12 -38 8 -27 -2 -54 -6 -60 -7 -24 -6 -106 1
-101 9 4 7 67 18 134 23 6 1 12 5 12 10 0 5 5 6 10 3 17 -11 11 11 -8 28 -15
14 -43 17 -138 19 -65 1 -99 3 -74 5 25 1 69 6 98 9 l53 6 -16 25 c-10 14 -12
22 -6 19 6 -4 11 -1 11 8 0 8 -4 18 -10 21 -5 3 -83 8 -172 10 -221 5 -486 20
-495 28 -5 6 103 9 385 12 32 0 46 -4 44 -12 -1 -9 10 -13 33 -13 19 0 35 5
35 10 0 6 -5 10 -11 10 -6 0 -9 10 -7 22 2 18 12 25 46 32 34 7 46 6 53 -5 5
-8 9 -9 9 -4 0 35 -16 38 -216 40 -110 1 -217 6 -239 12 -40 11 25 14 318 17
37 1 67 3 67 6 0 3 -14 18 -31 33 -28 25 -38 27 -118 28 -272 3 -381 6 -387
12 -4 4 83 7 194 7 180 0 202 2 202 16 0 14 2 15 18 3 14 -11 13 -10 -2 9 -20
23 -32 30 -20 10 5 -7 2 -9 -8 -6 -9 4 -36 10 -62 13 -49 8 -60 21 -23 28 12
2 -30 6 -93 8 l-115 3 88 3 c57 3 85 7 81 14 -3 6 0 10 7 8 26 -3 39 1 39 12
0 8 -5 7 -16 -2 -14 -11 -16 -10 -12 10 2 18 -5 28 -30 41 -18 10 -32 22 -30
27 2 4 -14 9 -34 11 -38 3 -54 22 -20 22 15 1 14 2 -3 12 -11 6 -22 14 -25 18
-3 4 -33 17 -68 29 -48 16 -89 21 -180 23 -84 1 -97 3 -44 5 55 3 72 7 72 18
0 8 -4 15 -10 15 -5 0 -10 7 -10 16 0 11 6 14 18 10 10 -4 7 2 -8 14 -22 17
-41 20 -170 21 -154 1 -161 15 -10 19 47 2 75 5 62 7 -12 2 -20 8 -17 13 4 7
-20 20 -45 25 -3 0 -24 11 -47 23 -36 19 -60 22 -165 24 l-123 2 105 5 105 6
-45 14 c-25 7 -67 21 -95 29 -81 26 -70 24 -280 33 l-60 2 50 6 50 7 -60 13
c-76 16 -144 29 -170 31 -90 6 -439 6 -515 -1z m583 -56 c-13 -2 -33 -2 -45 0
-13 2 -3 4 22 4 25 0 35 -2 23 -4z m-244 -311 c44 -33 64 -69 68 -124 5 -62
-17 -106 -67 -137 l-31 -18 1 -554 c0 -305 1 -786 2 -1069 1 -448 -1 -520 -15
-552 -8 -20 -24 -41 -35 -47 -45 -24 -45 -24 -49 1134 l-4 1090 -41 42 c-34
35 -42 50 -46 91 -5 61 15 106 66 145 32 25 43 28 82 23 25 -3 56 -14 69 -24z
m494 1 c36 -18 75 -78 83 -129 7 -49 -10 -89 -56 -128 l-31 -26 0 -130 c0 -71
0 -164 1 -206 l0 -76 165 4 165 3 0 137 c0 120 -2 138 -17 147 -10 6 -15 11
-11 11 4 0 -2 18 -13 40 -30 57 -23 130 16 170 53 55 122 62 192 19 43 -27 63
-66 64 -127 2 -60 -19 -94 -76 -128 -33 -19 -44 -32 -48 -57 -7 -48 3 -231 13
-241 5 -5 26 -12 47 -16 l38 -8 -38 -1 c-21 0 -45 -8 -53 -16 -10 -9 -35 -15
-67 -15 -29 0 -92 -7 -142 -15 -49 -8 -122 -15 -161 -15 l-71 0 -7 -47 c-5
-41 -15 -56 -79 -123 -39 -41 -105 -111 -144 -154 l-72 -79 -5 -213 c-2 -128
0 -214 5 -214 19 0 547 542 573 587 5 9 27 35 50 59 22 23 82 87 131 143 l90
100 125 1 c69 0 150 3 180 7 l55 8 -40 6 -40 6 38 2 c35 1 37 3 37 34 0 140
212 172 275 41 17 -36 17 -111 0 -163 -6 -17 -5 -22 3 -17 6 3 13 2 17 -4 5
-9 -15 -15 -38 -11 -4 1 -25 -8 -47 -19 -49 -25 -96 -25 -137 0 -29 18 -45 19
-207 13 -102 -4 -176 -10 -176 -16 0 -5 -48 -59 -107 -121 -60 -61 -148 -156
-198 -210 -49 -54 -134 -144 -187 -200 -54 -55 -108 -112 -122 -126 -17 -18
-21 -31 -15 -41 4 -9 10 -40 13 -69 3 -29 8 -60 11 -69 9 -30 -10 -44 -49 -37
-32 6 -52 26 -26 26 18 0 11 76 -8 93 -17 16 -22 13 -85 -42 -36 -33 -75 -62
-87 -66 -30 -9 -34 -41 -27 -219 4 -124 2 -168 -8 -193 -15 -34 -58 -83 -73
-83 -17 0 -22 115 -23 584 l-1 469 54 56 c30 31 98 104 151 163 l97 107 0 203
c0 112 -3 237 -6 279 -6 69 -9 77 -35 95 -37 24 -69 89 -69 140 0 32 8 49 36
82 51 60 105 71 177 35z m-1004 -11 c43 -31 62 -75 62 -137 0 -64 -17 -98 -63
-123 l-29 -17 3 -270 c3 -206 7 -276 17 -295 8 -14 69 -85 135 -158 67 -74
127 -144 133 -155 10 -17 11 -103 7 -367 -4 -225 -2 -397 6 -495 7 -95 8 -159
2 -175 l-9 -25 -45 45 -45 45 -8 203 c-4 111 -11 202 -16 202 -41 0 -808 782
-854 869 l-16 31 -177 0 c-134 0 -192 -4 -232 -16 -120 -36 -200 21 -200 142
0 58 13 88 51 114 94 67 214 10 234 -112 l7 -38 184 0 c111 0 184 -4 184 -10
0 -5 39 -51 88 -102 48 -51 114 -124 147 -163 100 -118 142 -162 377 -400
l228 -230 0 218 0 217 -39 43 c-158 173 -229 255 -239 274 -7 12 -12 42 -12
67 l0 44 -76 -5 c-81 -6 -327 14 -356 29 -16 8 -18 26 -18 166 l0 158 -42 19
c-56 26 -94 96 -83 152 10 54 81 123 126 123 37 0 91 -29 120 -63 44 -52 41
-148 -6 -197 -22 -23 -24 -37 -31 -152 l-7 -128 186 0 186 0 -6 197 -5 198
-33 36 c-60 67 -68 138 -24 201 49 68 128 85 188 40z m1784 -69 c-18 -2 -48
-2 -65 0 -18 2 -4 4 32 4 36 0 50 -2 33 -4z m-85 -140 c-15 -2 -42 -2 -60 0
-18 2 -6 4 27 4 33 0 48 -2 33 -4z m145 -400 c-29 -2 -77 -2 -105 0 -29 2 -6
3 52 3 58 0 81 -1 53 -3z m-75 -410 c-21 -2 -57 -2 -80 0 -24 2 -7 4 37 4 44
0 63 -2 43 -4z m435 0 c-7 -2 -19 -2 -25 0 -7 3 -2 5 12 5 14 0 19 -2 13 -5z
m497 -173 c12 -8 12 -10 -5 -10 -354 -6 -497 -6 -525 -1 -19 3 73 8 205 11
132 3 256 6 275 8 19 1 42 -3 50 -8z m-3355 -257 c187 -132 326 -249 531 -450
131 -128 178 -186 256 -313 36 -58 80 -130 100 -160 60 -94 160 -320 183 -415
l12 -50 11 52 c26 117 195 429 346 637 219 301 597 640 930 833 26 16 66 17
66 2 0 -23 65 -89 90 -90 17 -1 19 -3 8 -6 -10 -2 -18 -6 -18 -9 0 -2 33 -46
74 -98 41 -51 76 -100 78 -110 2 -12 -13 -22 -62 -40 -154 -55 -507 -244 -710
-379 -234 -156 -404 -298 -536 -449 -88 -101 -237 -310 -249 -350 -9 -27 -24
-48 -36 -48 -5 0 -24 35 -44 77 -20 43 -60 109 -89 148 -29 38 -74 99 -101
135 -162 218 -333 364 -650 555 -130 79 -398 212 -593 296 -57 24 -100 49 -98
55 8 21 181 238 228 286 l48 49 62 -44 c35 -24 108 -75 163 -114z m3473 50
c-15 -2 -42 -2 -60 0 -18 2 -6 4 27 4 33 0 48 -2 33 -4z m-330 -190 c-10 -2
-26 -2 -35 0 -10 3 -2 5 17 5 19 0 27 -2 18 -5z m-3638 -222 c176 -59 424
-162 582 -242 107 -55 315 -187 413 -262 65 -50 233 -217 294 -292 180 -222
230 -285 225 -285 -12 0 -102 67 -154 115 -202 186 -508 370 -756 454 -163 55
-417 120 -594 151 -96 17 -186 33 -200 36 -14 2 -59 8 -100 12 -64 6 -75 10
-72 24 3 19 204 338 212 338 3 0 71 -22 150 -49z m3352 -18 c19 -38 63 -114
97 -170 33 -56 61 -106 61 -111 0 -5 -24 -12 -52 -15 -55 -7 -71 -9 -198 -28
-123 -18 -295 -56 -465 -103 -248 -68 -455 -156 -648 -275 -191 -116 -224
-139 -294 -202 -70 -63 -153 -122 -161 -114 -3 2 13 26 35 52 22 26 59 75 83
108 105 143 320 347 475 449 61 40 133 87 160 105 145 95 760 359 861 370 6 0
26 -29 46 -66z m511 -60 c-13 -2 -33 -2 -45 0 -13 2 -3 4 22 4 25 0 35 -2 23
-4z m234 1 c-3 -3 -12 -4 -19 -1 -8 3 -5 6 6 6 11 1 17 -2 13 -5z m-219 -181
c-15 -2 -42 -2 -60 0 -18 2 -6 4 27 4 33 0 48 -2 33 -4z m220 -90 c-10 -2 -26
-2 -35 0 -10 3 -2 5 17 5 19 0 27 -2 18 -5z m-4240 -124 c212 -23 403 -60 609
-118 313 -89 553 -214 833 -434 113 -88 154 -126 147 -134 -2 -2 -98 41 -213
96 -295 140 -458 193 -734 241 -110 20 -178 23 -572 29 -246 4 -450 9 -452 12
-6 5 -6 6 82 165 33 61 64 123 68 138 8 32 -3 31 232 5z m3716 -101 c33 -62
70 -127 82 -145 13 -17 25 -42 26 -54 l3 -22 -285 2 c-292 2 -608 -16 -778
-43 -99 -16 -293 -64 -411 -101 -97 -31 -187 -72 -350 -159 -69 -36 -128 -66
-133 -66 -22 0 1 26 100 110 159 136 440 303 663 395 229 94 692 186 974 194
l51 1 58 -112z m-3362 -338 c326 -18 569 -66 813 -162 166 -64 355 -156 362
-175 3 -9 -1 -36 -10 -62 -9 -25 -19 -62 -23 -81 l-7 -35 44 43 c91 89 179
104 291 49 48 -24 56 -32 67 -69 30 -99 40 -108 67 -57 21 41 10 121 -22 168
-22 33 -23 36 -6 54 28 33 264 142 410 191 145 48 367 96 542 118 70 9 236 13
499 13 l394 0 14 -55 c8 -30 34 -117 58 -193 25 -77 45 -143 45 -148 0 -5
-262 -9 -632 -9 -348 0 -757 -3 -909 -7 l-277 -6 -4 -61 c-9 -103 -88 -224
-177 -270 -78 -41 -260 -36 -335 8 -48 28 -107 89 -131 136 -9 18 -23 64 -31
103 -9 40 -20 77 -25 82 -7 7 -324 10 -915 9 -500 0 -904 3 -904 8 0 5 24 84
54 176 30 92 57 181 61 199 5 25 12 33 33 36 55 8 483 6 654 -3z"/>
<path d="M5050 7691 c-24 -46 5 -101 53 -101 50 0 76 70 39 103 -26 24 -79 22
-92 -2z"/>
<path d="M5567 7692 c-37 -40 -7 -102 48 -102 30 0 45 19 45 55 0 56 -58 85
-93 47z"/>
<path d="M6060 7537 c-49 -25 -31 -99 25 -99 50 0 74 62 37 95 -22 20 -29 21
-62 4z"/>
<path d="M6672 7118 c-15 -15 -16 -63 -2 -89 12 -22 59 -26 78 -7 15 15 16 63
2 89 -12 22 -59 26 -78 7z"/>
<path d="M4556 7688 c-23 -32 -20 -61 8 -87 29 -28 52 -25 78 10 19 24 19 28
4 56 -13 26 -39 42 -68 43 -4 0 -14 -10 -22 -22z"/>
<path d="M4086 7535 c-19 -19 -21 -76 -4 -93 30 -30 98 -3 98 38 0 44 -66 83
-94 55z"/>
<path d="M3450 7110 c-37 -37 -19 -100 29 -100 31 0 61 27 61 54 0 18 -43 66
-60 66 -5 0 -19 -9 -30 -20z"/>
<path d="M5097 4383 c-16 -7 -41 -13 -56 -14 -23 -1 -22 -2 9 -11 43 -12 119
-4 157 16 30 16 33 15 -46 19 -19 1 -47 -4 -64 -10z"/>
<path d="M6770 7270 c-12 -8 -11 -10 8 -10 12 0 22 5 22 10 0 13 -11 13 -30 0z"/>
<path d="M4413 4373 l-33 -4 0 -614 0 -614 43 -11 c23 -6 57 -15 76 -20 19 -5
37 -7 40 -5 2 3 3 225 2 493 -3 484 5 646 32 664 7 4 1 21 -16 47 -15 22 -24
47 -21 56 5 12 -2 15 -42 13 -27 0 -64 -3 -81 -5z"/>
<path d="M2873 4357 c2 -7 43 -69 89 -137 230 -340 402 -518 714 -741 100 -72
387 -222 504 -263 41 -15 80 -32 87 -38 11 -8 13 51 13 313 0 178 3 341 6 362
l7 37 -146 0 -146 0 -38 -41 c-81 -86 -202 -64 -247 45 -27 63 -12 127 41 173
70 63 151 52 211 -27 19 -25 41 -49 48 -53 8 -5 72 -5 142 -1 l127 7 3 170 c1
94 5 179 8 189 5 17 -28 18 -711 18 -579 0 -716 -2 -712 -13z"/>
<path d="M5650 4331 c-14 -29 -16 -41 -7 -44 9 -3 12 -134 10 -591 l-2 -588
22 5 c12 3 50 11 85 18 l62 12 0 597 c0 329 3 605 6 614 5 14 -5 16 -75 16
l-81 0 -20 -39z"/>
<path d="M5912 4183 l3 -188 143 -3 c142 -3 142 -2 151 21 12 30 64 75 97 83
45 12 105 -3 136 -33 79 -75 78 -169 -2 -237 -26 -22 -41 -26 -91 -26 -57 0
-61 2 -105 45 l-45 45 -139 0 -140 0 -1 -187 c-2 -200 2 -517 5 -520 6 -6 205
74 302 122 213 105 460 288 664 494 138 139 236 259 374 459 l77 112 -715 0
-716 0 2 -187z"/>
<path d="M4638 3657 c3 -377 7 -564 14 -568 6 -4 34 -10 62 -13 28 -4 60 -9
71 -12 20 -5 20 0 21 501 1 284 -2 505 -7 505 -5 0 -44 33 -87 74 l-77 74 3
-561z"/>
<path d="M5525 4177 c-22 -23 -60 -60 -85 -83 -45 -40 -45 -40 -44 -104 1 -36
2 -258 3 -493 l1 -429 38 6 c20 3 58 8 83 11 l46 6 1 564 c0 311 0 565 -1 565
-1 0 -20 -19 -42 -43z"/>
<path d="M4904 3545 c2 -267 6 -488 8 -489 1 -2 33 -6 69 -9 l67 -6 5 37 c3
20 6 238 6 483 l1 447 -67 7 c-36 4 -73 9 -80 12 -12 5 -13 -72 -9 -482z"/>
<path d="M5210 4018 l-65 -10 6 -101 c3 -56 5 -272 5 -479 l-1 -378 73 0 72 0
0 490 c0 386 -3 490 -12 489 -7 -1 -42 -6 -78 -11z"/>
<path d="M6324 4012 c-16 -11 -34 -48 -34 -71 0 -27 34 -61 60 -61 29 0 60 36
60 69 0 44 -55 84 -86 63z"/>
<path d="M3806 3988 c-22 -32 -20 -61 7 -86 44 -41 97 -16 97 45 0 58 -73 86
-104 41z"/>
<path d="M4935 2134 c-121 -9 -135 -13 -135 -40 0 -13 1 -24 3 -25 7 -3 223
-18 297 -21 47 -2 132 4 190 12 92 14 105 19 108 36 3 19 -3 21 -59 23 -35 1
-66 4 -71 7 -10 6 -271 13 -333 8z"/>
</g>
</svg>
